# xmcd CD database file
#
# Track frame offsets:
#	150
#	31190
#	62317
#	84012
#	104860
#	130200
#	157825
#	182547
#	224465
#
# Disc length: 3228 seconds
#
# Revision: 0
# Processed by: cddbd v1.5.2PL0 Copyright (c) Steve Scherf et al.
# Submitted via: CDex 1.51
#
DISCID=6a0c9a09
DTITLE=Kan Nishida - Bass Trombone meets Piazzolla
DYEAR=2002
DGENRE=Jazz
TTITLE0=Ave Maria
TTITLE1=Milonga del Angel
TTITLE2=L'Amor
TTITLE3=Milonga en Re
TTITLE4=Oblivion
TTITLE5=Balada para mi muerte
TTITLE6=Libertango
TTITLE7=Soledad
TTITLE8=Years of Solitude
EXTD=YEAR: 2002
EXTT0=
EXTT1=
EXTT2=
EXTT3=
EXTT4=
EXTT5=
EXTT6=
EXTT7=
EXTT8=
PLAYORDER=
